<mxfile host="app.diagrams.net" modified="2023-11-10T11:59:38.703Z" agent="Mozilla/5.0 (Windows NT 10.0; Win64; x64) AppleWebKit/537.36 (KHTML, like Gecko) Chrome/118.0.0.0 Safari/537.36" version="22.1.0" etag="PG_28QSBsK4iLVuw7I-y" type="github">
  <diagram name="PÃ¡gina-1" id="FDfGUIFboFA9U2XyHq02">
    <mxGraphModel>
      <root>
        <mxCell id="0" />
        <mxCell id="1" parent="0" />
      </root>
    </mxGraphModel>
  </diagram>
</mxfile>
